<?xml version="1.0" standalone="no"?>
<!DOCTYPE svg PUBLIC "-//W3C//DTD SVG 20010904//EN"
 "http://www.w3.org/TR/2001/REC-SVG-20010904/DTD/svg10.dtd">
<svg version="1.0" xmlns="http://www.w3.org/2000/svg"
 width="512.000000pt" height="512.000000pt" viewBox="0 0 512.000000 512.000000"
 preserveAspectRatio="xMidYMid meet">
<metadata>
Created by potrace 1.14, written by Peter Selinger 2001-2017
</metadata>
<g transform="translate(0.000000,512.000000) scale(0.100000,-0.100000)"
fill="#000000" stroke="none">
<path d="M2385 3972 c-38 -1 -77 -5 -85 -9 -8 -4 -22 -7 -30 -8 -76 -10 -237
-40 -245 -45 -5 -4 -46 -16 -90 -25 -44 -10 -82 -21 -85 -25 -3 -4 -35 -15
-72 -25 -38 -10 -68 -21 -68 -25 0 -4 -6 -7 -12 -8 -23 -1 -113 -37 -126 -49
-7 -7 -19 -13 -26 -13 -7 0 -49 -18 -92 -40 -43 -22 -85 -40 -91 -40 -7 0 -13
-4 -13 -8 0 -5 -19 -17 -42 -28 -24 -10 -52 -27 -63 -37 -11 -10 -30 -20 -42
-23 -13 -4 -23 -10 -23 -15 0 -5 -15 -16 -32 -25 -18 -9 -35 -20 -38 -23 -3
-4 -32 -26 -65 -49 -86 -61 -295 -249 -295 -266 0 -4 -20 -26 -45 -49 -25 -24
-45 -49 -45 -55 0 -7 -9 -17 -20 -24 -11 -7 -20 -16 -20 -20 0 -4 -25 -43 -55
-87 -30 -44 -55 -85 -55 -91 0 -5 -5 -10 -11 -10 -5 0 -19 -20 -30 -45 -11
-24 -25 -50 -32 -57 -7 -7 -21 -29 -31 -48 -9 -19 -33 -60 -51 -90 -19 -30
-42 -72 -51 -92 -9 -21 -20 -38 -24 -38 -4 0 -13 -13 -19 -28 -6 -15 -22 -40
-34 -54 -132 -153 -177 -291 -137 -420 33 -107 81 -128 299 -129 89 -1 172 -7
211 -16 72 -16 262 -82 270 -93 3 -4 26 -15 53 -25 26 -10 47 -21 47 -24 0 -4
16 -13 35 -20 19 -7 40 -18 47 -24 7 -7 32 -21 56 -31 23 -11 42 -22 42 -27 0
-4 20 -15 45 -25 25 -9 45 -20 45 -25 0 -4 20 -15 45 -25 25 -9 45 -20 45 -25
0 -4 10 -11 23 -15 12 -4 49 -19 82 -34 33 -15 71 -31 85 -35 14 -4 34 -13 45
-20 11 -7 47 -20 80 -30 33 -9 62 -20 65 -24 5 -7 62 -25 120 -37 13 -3 29 -9
35 -13 9 -8 153 -42 183 -44 6 0 12 -3 12 -7 0 -6 124 -25 255 -38 81 -8 336
-8 410 1 143 16 231 29 250 37 11 5 58 17 105 26 47 10 87 21 90 25 3 3 34 15
70 25 36 9 67 20 70 24 3 3 21 12 40 19 43 16 163 73 170 81 3 4 20 12 38 20
19 7 39 18 45 24 7 7 30 23 52 36 22 13 49 32 59 42 11 10 26 18 33 18 7 0 13
4 13 8 0 5 19 19 43 32 23 13 51 32 61 42 11 10 29 21 40 24 12 4 23 10 26 15
8 12 160 89 176 89 7 0 14 4 16 10 2 5 35 17 73 26 39 9 77 19 85 22 33 11 52
12 238 17 224 5 333 18 390 45 23 11 45 20 49 20 16 0 91 76 98 98 13 44 13
100 0 159 -19 85 -35 133 -43 133 -4 0 -16 23 -27 50 -11 28 -22 50 -25 50 -3
0 -12 16 -19 36 -7 19 -22 50 -33 67 -11 18 -41 68 -67 112 -68 115 -75 128
-84 139 -112 157 -222 297 -289 367 -27 27 -48 54 -48 59 0 6 -4 10 -9 10 -5
0 -36 26 -69 58 -33 31 -76 71 -97 87 -21 17 -45 37 -54 45 -9 8 -38 31 -65
50 -26 19 -55 42 -65 50 -9 8 -33 24 -54 35 -20 11 -37 23 -37 27 0 3 -8 9
-18 12 -10 4 -27 14 -38 24 -10 10 -34 24 -52 31 -19 8 -39 19 -45 25 -11 10
-130 70 -197 100 -14 6 -27 13 -30 16 -7 8 -110 47 -190 72 -36 12 -67 24 -70
28 -3 3 -43 15 -90 25 -47 10 -87 22 -90 25 -3 4 -57 15 -120 25 -63 10 -123
22 -132 27 -17 8 -378 16 -513 10z"/>
</g>
</svg>
